<?xml version="1.0" encoding="UTF-8"?><svg id="b" xmlns="http://www.w3.org/2000/svg" viewBox="0 0 91.48 157.41"><g id="c"><path d="m62.8,1.83c-1.41-.01-1.5.8-1.46,1.84.03.63-.01,1.27.01,1.9.06,1.35.58,1.74,1.76,1.08.78-.44,1.05-.55,1.22.43.06.34.39.64.58.96.71,1.21.4,1.81-1.05,1.96-.16.02-.32.02-.47.01-.84-.06-1.11.39-1.08,1.15.03.95.04,1.9.05,2.85.49-.33.96-.74,1.49-.96.31-.13.85-.08,1.09.12.23.2.33.73.25,1.05-.07.28-.46.65-.74.67-.69.06-1.39-.04-2.09-.08,0,.38-.02.75-.03,1.13.6.1,1.19.2,1.79.29-.32.5-.56,1.06-.97,1.48-.41.43-1.2,1.1-1.43.97-.71-.39-.32-1.24-.29-1.91-1.13.38-1.92,1.57-3.35,1.32-.51-.09-.93.77-.61,1.25.43.65,1,1.21,1.5,1.81.49.58.91,1.17,1.62.12.15-.23,1.01-.08,1.51.05.41.11.74.56,1.15.64.62.12,1.02.26,1.07,1,.02.35.27.7.46,1.03.84,1.44.66,3.24-.49,4.46-.53.57-1.1,1.1-1.61,1.68-.1.12-.09.4-.04.57.03.1.26.14.41.19.76.22,1.11-.45,1.64-.74.88-.46,1.54-.04,1.59.96.03.56.03,1.12,0,1.68-.06,1.13-.94,1.72-1.68.93-1-1.06-1.27-.04-1.82.28-.63.36-.59,1-.35,1.45.16.3.75.48,1.16.51,2.75.19,2.73.17,2.72,2.95,0,.97-.06,1.79-.96,2.49-.47.37-1.15.83-1.08,1.74.04.55.38,1.47-.41,1.63-.37.08-.93-.69-1.38-1.09-.29-.26-.61-.52-.82-.85-.58-.9-1.45-.88-2.33-.81-.72.06-1.08.31-.45,1.03.13.14.09.61-.06.78-.7.84-1.35,1.61-1.71,2.74-.2.64-1.23.98-.07,1.66.04.02-.14.48-.27.71-.18.33-.41.62-.62.94,1.06.28,1.25-.79,1.84-1.23.07-.05-.02-.43-.13-.59-.22-.31-.65-.64-.11-.93.3-.16.88-.2,1.11-.02.79.62,1.53,1.32,2.2,2.07.22.25.21.74.22,1.12,0,.44-.42.59-.81.3-.3-.22-.56-.57-.89-.65-.55-.12-1.15-.08-1.23.72-.02.24-.06.48-.05.72.04,1.47-.27,1.44-1.78,1.47-.9.02-1.34-.34-1.27-1.27.02-.23-.07-.47-.12-.71-.22-.06-.55-.05-.65-.19-.4-.59-.63-1.19-1.29-.14-.34.55-.99.99-1.59,1.29-.87.44-1.84.69-2.73,1.1-.22.1-.42.49-.44.75-.03.37.08.78.22,1.13.11.28.87.31.33.82-.06.06-.47-.22-.69-.38-.42-.3-.74-.21-.94.23-.09.21-.06.47-.12.7-.14.52-.36.99-.88.3-.67-.9-1.57-.56-2.42-.51-.18.01-.34.26-.51.4.19.2.35.46.58.59.37.2,1.08-.2,1.11.51.01.24-.56.46-.76.77-.41.63-.73.77-1.2.05-.08-.12-.56-.1-.76.02-1.29.72-1.28.74-2.27-.16-.29-.26-.57-.53-.84-.8-.36-.36-.68-.3-.97.09-.26.35-.52.58-.91.11-.75-.91-2.03-.81-2.59-.35-1.08.89-2.19.75-3.35.77-.77.02-1.12.29-1.19,1.11-.09,1.06-.54.99-1.11.22-.08-.11-.7,0-.71.04-.09,1.21-.84,1.91-1.74,2.63-.8.64-.47,1.54.47,1.92,1.04.42,2.22.74,3.01,1.47.96.88,1.76,1.8,3.21,1.61.21-.03.52.08.65.23.52.65,1.21.72,1.94.68.7-.03,1.08.31,1.54.86,1.05,1.26,3.46,2.16,5.12,2.19.71.01,1.44.01,2.14.12.48.07.66.81.36,1.42-.26.52-.63.35-.91,0-.3-.38-.56-.51-.93-.09-.36.41-.68.91-1.14,1.15-.44.23-1.33.41-1.49.2-.78-1.04-1.86-.93-2.82-.76-1.73.3-3.16-.57-4.31-1.4-1.03-.74-1.92-.48-2.88-.63-1.28-.2-1.66.84-2.39,1.61,1.2.49,2.21,1.1,3.3,1.29,1.24.21,2.55.05,3.83.05.56,0,1.12-.02,1.68.02.31.02.77.03.88.22.71,1.13,1.82.78,2.8.79,2.8.04,5.59,0,8.39.03,1.01.01,1.4.72.96,1.59q-.98,1.94.9,2.6c.06.02.1.12.14.19-.68,1.1-1.46,1.88-2.97,1.73-.91-.09-1.83,1.07-1.9,2.04-.03.48,0,.96-.01,1.44-.03.83.21,1.4,1.19,1.37.59-.02.85.35.87.9.02.48-.05.97.03,1.43.14.81-.41,1.75.42,2.43.55-.52,1.1-1.05,1.68-1.54.12-.1.49-.12.55-.04.11.14.15.53.06.58-1.07.73-1.82,1.66-1.99,2.99-.01.08-.25.14-.39.18-.03,0-.13-.09-.14-.16-.08-.3-.16-.61-.21-.92-.09-.59-.44-.99-.92-.5-.75.77-2.51.54-2.3,2.29.01.1-.34.32-.55.35-.39.07-.8.06-1.19.05-.82-.02-1.13.4-1.12,1.18,0,.28-.11.57-.18.86-1.76.06-1.77.08-1.8,1.67-.01.67.02,1.34.03,2.01-.22.05-.52.15-.6.07-.61-.67-1.07-.99-1.76,0-.53.76-1.29,1.46-2.12.2-.77.06-1.69-.11-2.29.24-1.57.93-2.98.95-4.53,0-.82-.51-1.89-.62-2.62.1-.55.54-1.11.48-1.72.57-.45.07-.99.11-1.29.39-.94.85-2.08,1.26-3.23,1.7-1.55.6-2.84,1.74-4.47,2.2-.15.04-.29.36-.33.57-.08.44-.11.88-.15,1.33-2.24-.53-4.13-.04-5.51,1.94-.18.25-.39.52-.64.68-.15.1-.53.09-.62-.02-.72-.9-1.07-.8-1.22.35-.05.35-.27.71-.5.98-.66.77-.47,1.62-.29,2.46.02.11.49.24.5.22.49-.92,1.66-.54,2.21-1.11.68-.7.85-.33,1.43.12,1.02.79.75,1.78.54,2.6-.2.78-.85,1.39-.9,2.36-.04.86-.51,1.75-.97,2.53-.38.64-.91,1.3-1.55,1.64-.69.36-1.35-.07-1.78-.78-.07-.11-.45-.04-.69-.05.04-.55-.13-1.39.16-1.6,1.39-1.04.77-2.44.83-3.71,0-.15-.26-.42-.42-.44-.16-.01-.42.2-.49.37-.37.9-.85,1.8-.99,2.75-.15,1,.05,2.05.1,3.08-.35,1,.23,2.31-1.02,2.99.25,1.29-1.34,1.84-1.17,3.21.15,1.27.45,2.71-.8,3.77-.13.11-.1.45-.1.69,0,1.2-.02,2.4,0,3.6,0,.31-.01.73.17.92.99,1.06,1.2,2.57,2.49,3.53,1.59,1.19,2.74,2.95,4.25,4.27.82.72,1.13,1.41,1.08,2.42-.04.96-.13,1.94.04,2.87.19.97.64,1.9,1.03,2.82.22.5.55.51.82,0,.07-.14.16-.34.28-.37.2-.05.51-.07.61.04.11.12.13.49.02.61-.31.34-.68.62-1.06.88-.64.45-1.12,1.71-2.15.46-.06-.07-.54.03-.6.16-.36.76-1.04.58-1.65.65-.46.05-1.14.06-1.31.34-.42.71-1.01.65-1.64.69-.53.03-1.06-.07-1.51.49-.24.3-.82.39-1.27.45-.38.05-.66.09-.87.14l.08.25,26.27-.08,8.4-16.51v-3.74s34.73-44.32,35.34-45.7l13.42-.28.05-14.75-4.79.08,1.78-64.56h10.69V.12h-27.05s0,0,0,0c-.01.29-.03.58-.04.87-.48.32-.97.84-1.45.84Z" style="fill:none; stroke:#000; stroke-linejoin:bevel; stroke-width:.25px;"/></g></svg>